<svg width="137" height="16" viewBox="0 0 137 16" fill="none" xmlns="http://www.w3.org/2000/svg">
<path d="M60.4917 0.0200895H56.6529V4.13262H60.4917V0.0200895Z" fill="white"/>
<path d="M69.783 11.4124V15.2671H63.4869C62.4111 15.2671 61.3963 15.0216 60.4917 14.5797C59.1224 13.9045 57.9977 12.7874 57.3375 11.4124C56.8974 10.504 56.6529 9.48505 56.6529 8.41702V5.31114H60.4917V8.41702C60.4917 10.0743 61.8242 11.4124 63.4869 11.4124H69.783Z" fill="white"/>
<path d="M119.088 3.48198C118.428 2.29119 117.438 1.33364 116.24 0.732108C115.372 0.290165 114.394 0.0446434 113.355 0.0446434C112.315 0.0446434 111.337 0.290165 110.469 0.732108C109.063 1.43185 107.939 2.6472 107.303 4.12034H111.533C112.034 3.56791 112.658 3.23646 113.355 3.23646C114.051 3.23646 114.675 3.56791 115.164 4.12034H119.394C119.308 3.91165 119.198 3.69068 119.088 3.48198ZM119.907 5.9495C119.883 5.72853 119.834 5.51983 119.785 5.29886H115.873C116.093 5.86357 116.228 6.50193 116.228 7.1894V7.85231C116.228 10.0252 114.932 11.793 113.342 11.793C111.753 11.793 110.457 10.0252 110.457 7.85231V7.1894C110.457 6.50193 110.579 5.86357 110.812 5.29886H106.9C106.777 5.81446 106.716 6.35462 106.716 6.90705V8.40474C106.716 11.1178 108.244 13.4748 110.457 14.5797C111.325 15.0216 112.303 15.2671 113.342 15.2671C114.382 15.2671 115.36 15.0216 116.228 14.5797C117.45 13.9659 118.453 12.9838 119.113 11.7562C119.492 11.0564 119.761 10.283 119.883 9.4605C119.944 9.11676 119.969 8.76076 119.969 8.39247V6.89477C119.969 6.58786 119.944 6.25641 119.907 5.9495Z" fill="white"/>
<path d="M50.8213 5.29886C50.6257 5.60577 50.2834 5.80219 49.8922 5.80219H45.0509V5.29886H41.2121V15.2671H45.0509V9.33774H49.8922C52.2517 9.33774 54.1955 7.58224 54.4889 5.29886H50.8213ZM49.8922 0.0200895H41.2121V4.13262H45.0509V3.56791H49.8922C50.3078 3.56791 50.6746 3.80116 50.8702 4.13262H54.5012C54.2322 1.81242 52.2761 0.0200895 49.8922 0.0200895Z" fill="white"/>
<path d="M93.7205 5.29886H90.1629V15.2671H93.7205V5.29886Z" fill="white"/>
<path d="M98.1217 4.13262H90.1751V3.76434C90.2118 2.11932 91.2876 0.719834 92.7791 0.21651C93.0848 0.1183 93.4026 0.0446419 93.745 0.0200895C93.8305 0.00781325 93.9161 0.0078125 94.0017 0.0078125C95.6154 0.0078125 96.9969 1.01446 97.5593 2.43851L97.5715 2.45078L97.6693 2.75768L98.1217 4.13262Z" fill="white"/>
<path d="M104.454 0.0200895H100.628V4.13262H104.454V0.0200895Z" fill="white"/>
<path d="M100.628 5.29886H104.454V11.6211C104.418 13.2784 103.342 14.6656 101.85 15.1689C101.471 15.304 101.056 15.3654 100.628 15.3654C98.9774 15.3654 97.5715 14.3096 97.0336 12.8365L96.9725 12.6646L94.4785 5.29886H98.5129L99.3931 7.88914L100.628 11.5597V5.29886Z" fill="white"/>
<path d="M85.2605 5.29886H81.0671L83.1332 11.4124H77.3873L79.4534 5.29886H75.26L73.1939 11.4124L71.8858 15.2671H88.6225L85.2605 5.29886ZM84.5392 3.17508L84.4658 2.96638C83.9401 1.53006 82.7053 0.437479 81.2016 0.118298C80.896 0.0569166 80.5781 0.0200895 80.2602 0.0200895C79.9424 0.0200895 79.6245 0.0569166 79.3189 0.118298C77.8029 0.437479 76.5682 1.53006 76.0547 2.96638L75.9813 3.18735L75.6635 4.13262H84.8815L84.5392 3.17508Z" fill="white"/>
<path d="M126.35 4.13262H122.463C122.499 3.91165 122.548 3.69068 122.609 3.48198C123.184 1.55462 124.957 0.142852 127.059 0.142852H136.045V3.48198H127.438C126.962 3.48198 126.558 3.73978 126.35 4.13262Z" fill="white"/>
<path d="M136.339 10.6022C136.339 11.0073 136.29 11.3879 136.192 11.7562C135.678 13.7695 133.857 15.2549 131.693 15.2549H122.414V11.7562H131.204C131.827 11.7562 132.341 11.2405 132.341 10.6145C132.341 9.98837 131.827 9.47278 131.204 9.47278H127.072C124.895 9.47278 123.074 7.97508 122.573 5.93723C122.524 5.72853 122.487 5.51983 122.463 5.28658H126.375C126.583 5.66715 126.986 5.93723 127.451 5.93723H131.717C133.893 5.93723 135.715 7.43492 136.216 9.47278C136.29 9.84106 136.339 10.2216 136.339 10.6022Z" fill="white"/>
<path d="M28.8154 0.118298V3.35922H21.7247C21.0645 3.35922 20.4777 3.65385 20.0865 4.13262H16.1376C16.431 2.26664 17.8125 0.756664 19.5974 0.290168C19.9887 0.179682 20.4043 0.130575 20.82 0.130575H28.8154V0.118298Z" fill="white"/>
<path d="M21.7247 11.7807H28.8154V14.9234H20.8078C20.3921 14.9234 19.9764 14.862 19.5852 14.7638C17.5558 14.2237 16.0643 12.37 16.0643 10.1725V5.29886H19.5974C19.5852 5.36024 19.5852 5.4339 19.5852 5.49528V9.63236C19.5974 10.8232 20.551 11.7807 21.7247 11.7807Z" fill="white"/>
<path d="M12.7389 0.24106V3.48198H5.64817C5.04912 3.48198 4.49898 3.72751 4.11999 4.13262H0.0733536C0.403441 2.32802 1.76047 0.867149 3.50871 0.400653C3.89993 0.290167 4.31559 0.24106 4.73126 0.24106H12.7389Z" fill="white"/>
<path d="M3.52094 5.97405H12.7512V9.16587H3.52094V9.7674C3.52094 10.9459 4.47452 11.9157 5.6604 11.9157H12.7512V15.0585H4.74348C4.32782 15.0585 3.91215 14.9971 3.52094 14.8989C1.49151 14.3587 0 12.505 0 10.3076V5.32342H3.54539C3.53316 5.42163 3.52094 5.53211 3.52094 5.64259V5.97405Z" fill="white"/>
<path d="M38.8403 5.97405H31.1994V9.16587H38.8403V5.97405Z" fill="white"/>
</svg>