<svg width="137" height="16" viewBox="0 0 137 16" fill="none" xmlns="http://www.w3.org/2000/svg">
<path d="M60.6792 0.0200895H56.8404V4.13262H60.6792V0.0200895Z" fill="#FF0C2E"/>
<path d="M69.9705 11.4124V15.2671H63.6744C62.5986 15.2671 61.5838 15.0216 60.6792 14.5797C59.3099 13.9045 58.1852 12.7874 57.525 11.4124C57.0849 10.504 56.8404 9.48505 56.8404 8.41702V5.31114H60.6792V8.41702C60.6792 10.0743 62.0117 11.4124 63.6744 11.4124H69.9705Z" fill="#FF0C2E"/>
<path d="M119.276 3.48198C118.616 2.29119 117.625 1.33364 116.427 0.732108C115.559 0.290165 114.581 0.0446434 113.542 0.0446434C112.503 0.0446434 111.525 0.290165 110.657 0.732108C109.251 1.43185 108.126 2.6472 107.49 4.12034H111.721C112.222 3.56791 112.845 3.23646 113.542 3.23646C114.239 3.23646 114.862 3.56791 115.351 4.12034H119.581C119.496 3.91165 119.386 3.69068 119.276 3.48198ZM120.095 5.9495C120.071 5.72853 120.022 5.51983 119.973 5.29886H116.061C116.281 5.86357 116.415 6.50193 116.415 7.1894V7.85231C116.415 10.0252 115.119 11.793 113.53 11.793C111.941 11.793 110.645 10.0252 110.645 7.85231V7.1894C110.645 6.50193 110.767 5.86357 110.999 5.29886H107.087C106.965 5.81446 106.904 6.35462 106.904 6.90705V8.40474C106.904 11.1178 108.432 13.4748 110.645 14.5797C111.513 15.0216 112.491 15.2671 113.53 15.2671C114.569 15.2671 115.547 15.0216 116.415 14.5797C117.638 13.9659 118.64 12.9838 119.3 11.7562C119.679 11.0564 119.948 10.283 120.071 9.4605C120.132 9.11676 120.156 8.76076 120.156 8.39247V6.89477C120.156 6.58786 120.132 6.25641 120.095 5.9495Z" fill="#FF0C2E"/>
<path d="M51.0088 5.29886C50.8132 5.60577 50.4709 5.80219 50.0797 5.80219H45.2384V5.29886H41.3996V15.2671H45.2384V9.33774H50.0797C52.4392 9.33774 54.383 7.58224 54.6764 5.29886H51.0088ZM50.0797 0.0200895H41.3996V4.13262H45.2384V3.56791H50.0797C50.4953 3.56791 50.8621 3.80116 51.0577 4.13262H54.6887C54.4197 1.81242 52.4636 0.0200895 50.0797 0.0200895Z" fill="#FF0C2E"/>
<path d="M93.908 5.29886H90.3504V15.2671H93.908V5.29886Z" fill="#FF0C2E"/>
<path d="M98.3092 4.13262H90.3626V3.76434C90.3993 2.11932 91.4751 0.719834 92.9666 0.21651C93.2723 0.1183 93.5901 0.0446419 93.9325 0.0200895C94.018 0.00781325 94.1036 0.0078125 94.1892 0.0078125C95.8029 0.0078125 97.1844 1.01446 97.7468 2.43851L97.759 2.45078L97.8568 2.75768L98.3092 4.13262Z" fill="#FF0C2E"/>
<path d="M104.642 0.0200895H100.815V4.13262H104.642V0.0200895Z" fill="#FF0C2E"/>
<path d="M100.815 5.29886H104.642V11.6211C104.605 13.2784 103.529 14.6656 102.038 15.1689C101.659 15.304 101.243 15.3654 100.815 15.3654C99.1649 15.3654 97.759 14.3096 97.2211 12.8365L97.16 12.6646L94.666 5.29886H98.7004L99.5806 7.88914L100.815 11.5597V5.29886Z" fill="#FF0C2E"/>
<path d="M85.448 5.29886H81.2546L83.3207 11.4124H77.5748L79.6409 5.29886H75.4475L73.3814 11.4124L72.0733 15.2671H88.81L85.448 5.29886ZM84.7267 3.17508L84.6533 2.96638C84.1276 1.53006 82.8928 0.437479 81.3891 0.118298C81.0835 0.0569166 80.7656 0.0200895 80.4477 0.0200895C80.1299 0.0200895 79.812 0.0569166 79.5064 0.118298C77.9904 0.437479 76.7557 1.53006 76.2422 2.96638L76.1688 3.18735L75.851 4.13262H85.069L84.7267 3.17508Z" fill="#FF0C2E"/>
<path d="M126.538 4.13262H122.65C122.687 3.91165 122.736 3.69068 122.797 3.48198C123.371 1.55462 125.144 0.142852 127.247 0.142852H136.233V3.48198H127.626C127.149 3.48198 126.746 3.73978 126.538 4.13262Z" fill="#FF0C2E"/>
<path d="M136.526 10.6022C136.526 11.0073 136.477 11.3879 136.379 11.7562C135.866 13.7695 134.044 15.2549 131.88 15.2549H122.601V11.7562H131.391C132.015 11.7562 132.528 11.2405 132.528 10.6145C132.528 9.98837 132.015 9.47278 131.391 9.47278H127.259C125.083 9.47278 123.261 7.97508 122.76 5.93723C122.711 5.72853 122.675 5.51983 122.65 5.28658H126.562C126.77 5.66715 127.174 5.93723 127.638 5.93723H131.905C134.081 5.93723 135.902 7.43492 136.404 9.47278C136.477 9.84106 136.526 10.2216 136.526 10.6022Z" fill="#FF0C2E"/>
<path d="M29.0029 0.118298V3.35922H21.9122C21.252 3.35922 20.6652 3.65385 20.274 4.13262H16.3251C16.6185 2.26664 18 0.756664 19.7849 0.290168C20.1762 0.179682 20.5918 0.130575 21.0075 0.130575H29.0029V0.118298Z" fill="#FF0C2E"/>
<path d="M21.9122 11.7807H29.0029V14.9234H20.9953C20.5796 14.9234 20.1639 14.862 19.7727 14.7638C17.7433 14.2237 16.2518 12.37 16.2518 10.1725V5.29886H19.7849C19.7727 5.36024 19.7727 5.4339 19.7727 5.49528V9.63236C19.7849 10.8232 20.7385 11.7807 21.9122 11.7807Z" fill="#FF0C2E"/>
<path d="M12.9264 0.24106V3.48198H5.83567C5.23662 3.48198 4.68648 3.72751 4.30749 4.13262H0.260854C0.590941 2.32802 1.94797 0.867149 3.69621 0.400653C4.08743 0.290167 4.50309 0.24106 4.91876 0.24106H12.9264Z" fill="#FF0C2E"/>
<path d="M3.70844 5.97405H12.9387V9.16587H3.70844V9.7674C3.70844 10.9459 4.66202 11.9157 5.8479 11.9157H12.9387V15.0585H4.93098C4.51532 15.0585 4.09965 14.9971 3.70844 14.8989C1.67901 14.3587 0.1875 12.505 0.1875 10.3076V5.32342H3.73289C3.72066 5.42163 3.70844 5.53211 3.70844 5.64259V5.97405Z" fill="#FF0C2E"/>
<path d="M39.0278 5.97405H31.3869V9.16587H39.0278V5.97405Z" fill="#FF0C2E"/>
</svg>