<svg width="32" height="32" viewBox="0 0 32 32" fill="none" xmlns="http://www.w3.org/2000/svg">
<rect width="32" height="32" rx="16" fill="#272727"/>
<g clip-path="url(#clip0_221_8128)">
<path d="M16 9.44184C18.1374 9.44184 18.3883 9.45137 19.233 9.48948C20.0143 9.52441 20.4367 9.65462 20.7193 9.76578C21.0941 9.91187 21.3609 10.0834 21.6403 10.3628C21.9198 10.6423 22.0945 10.9091 22.2374 11.2838C22.3454 11.5665 22.4788 11.9889 22.5137 12.7701C22.5518 13.6149 22.5613 13.8658 22.5613 16.0032C22.5613 18.1405 22.5518 18.3914 22.5137 19.2362C22.4788 20.0175 22.3486 20.4399 22.2374 20.7225C22.0913 21.0973 21.9198 21.364 21.6403 21.6435C21.3609 21.923 21.0941 22.0977 20.7193 22.2406C20.4367 22.3486 20.0143 22.4819 19.233 22.5169C18.3883 22.555 18.1374 22.5645 16 22.5645C13.8626 22.5645 13.6118 22.555 12.767 22.5169C11.9857 22.4819 11.5633 22.3517 11.2807 22.2406C10.9059 22.0945 10.6391 21.923 10.3597 21.6435C10.0802 21.364 9.90552 21.0973 9.76261 20.7225C9.65463 20.4399 9.52124 20.0175 9.4863 19.2362C9.44819 18.3914 9.43867 18.1405 9.43867 16.0032C9.43867 13.8658 9.44819 13.6149 9.4863 12.7701C9.52124 11.9889 9.65145 11.5665 9.76261 11.2838C9.9087 10.9091 10.0802 10.6423 10.3597 10.3628C10.6391 10.0834 10.9059 9.90869 11.2807 9.76578C11.5633 9.6578 11.9857 9.52441 12.767 9.48948C13.6118 9.44819 13.8658 9.44184 16 9.44184ZM16 8C13.8277 8 13.5546 8.00953 12.7003 8.04764C11.8491 8.08575 11.268 8.22231 10.7598 8.41921C10.2326 8.62247 9.78801 8.89877 9.34339 9.34339C8.89877 9.78801 8.62565 10.2358 8.41921 10.7598C8.22231 11.268 8.08575 11.8491 8.04764 12.7035C8.00953 13.5546 8 13.8277 8 16C8 18.1723 8.00953 18.4454 8.04764 19.2997C8.08575 20.1509 8.22231 20.732 8.41921 21.2434C8.62247 21.7705 8.89877 22.2152 9.34339 22.6598C9.78801 23.1044 10.2358 23.3775 10.7598 23.584C11.268 23.7809 11.8491 23.9174 12.7035 23.9555C13.5578 23.9936 13.8277 24.0032 16.0032 24.0032C18.1786 24.0032 18.4486 23.9936 19.3029 23.9555C20.154 23.9174 20.7352 23.7809 21.2465 23.584C21.7737 23.3807 22.2184 23.1044 22.663 22.6598C23.1076 22.2152 23.3807 21.7674 23.5871 21.2434C23.7841 20.7352 23.9206 20.154 23.9587 19.2997C23.9968 18.4454 24.0064 18.1755 24.0064 16C24.0064 13.8245 23.9968 13.5546 23.9587 12.7003C23.9206 11.8491 23.7841 11.268 23.5871 10.7566C23.3839 10.2295 23.1076 9.78484 22.663 9.34021C22.2184 8.89559 21.7706 8.62247 21.2465 8.41604C20.7384 8.21913 20.1572 8.08257 19.3029 8.04446C18.4454 8.00953 18.1723 8 16 8Z" fill="white"/>
<path d="M16.0002 11.8945C13.7326 11.8945 11.8906 13.7334 11.8906 16.0041C11.8906 18.2748 13.7295 20.1137 16.0002 20.1137C18.2709 20.1137 20.1098 18.2748 20.1098 16.0041C20.1098 13.7334 18.2709 11.8945 16.0002 11.8945ZM16.0002 18.6686C14.5266 18.6686 13.3325 17.4745 13.3325 16.0009C13.3325 14.5273 14.5266 13.3332 16.0002 13.3332C17.4738 13.3332 18.6679 14.5273 18.6679 16.0009C18.6679 17.4745 17.4738 18.6686 16.0002 18.6686Z" fill="white"/>
<path d="M20.2716 12.6878C20.8013 12.6878 21.2307 12.2583 21.2307 11.7286C21.2307 11.1989 20.8013 10.7695 20.2716 10.7695C19.7419 10.7695 19.3125 11.1989 19.3125 11.7286C19.3125 12.2583 19.7419 12.6878 20.2716 12.6878Z" fill="white"/>
</g>
<defs>
<clipPath id="clip0_221_8128">
<rect width="16" height="16" fill="white" transform="translate(8 8)"/>
</clipPath>
</defs>
</svg>