<svg width="33" height="32" viewBox="0 0 33 32" fill="none" xmlns="http://www.w3.org/2000/svg">
<rect x="0.5" width="32" height="32" rx="16" fill="#272727"/>
<path d="M22.5 12H20.3667C19.2466 12 18.6865 12 18.2587 12.218C17.8824 12.4097 17.5764 12.7157 17.3847 13.092C17.1667 13.5198 17.1667 14.0799 17.1667 15.2V16M22.5 12L20.5 10M22.5 12L20.5 14M15.1667 10H13.7C12.5799 10 12.0198 10 11.592 10.218C11.2157 10.4097 10.9097 10.7157 10.718 11.092C10.5 11.5198 10.5 12.0799 10.5 13.2V18.8C10.5 19.9201 10.5 20.4802 10.718 20.908C10.9097 21.2843 11.2157 21.5903 11.592 21.782C12.0198 22 12.5799 22 13.7 22H19.3C20.4201 22 20.9802 22 21.408 21.782C21.7843 21.5903 22.0903 21.2843 22.282 20.908C22.5 20.4802 22.5 19.9201 22.5 18.8V17.3333" stroke="white" stroke-width="2" stroke-linecap="round" stroke-linejoin="round"/>
</svg>
