<svg width="34" height="34" viewBox="0 0 34 34" fill="none" xmlns="http://www.w3.org/2000/svg">
<path d="M9.20833 9.20833H9.2225M24.7917 9.20833H24.8058M9.20833 24.7917H9.2225M18.4167 18.4167H18.4308M24.7917 24.7917H24.8058M24.0833 29.75H29.75V24.0833M19.8333 23.375V29.75M29.75 19.8333H26.5625H23.375M22.1 14.1667H27.4833C28.2767 14.1667 28.6734 14.1667 28.9765 14.0123C29.243 13.8764 29.4598 13.6597 29.5956 13.3932C29.75 13.0901 29.75 12.6934 29.75 11.9V6.51667C29.75 5.72326 29.75 5.32656 29.5956 5.02351C29.4598 4.75695 29.243 4.54023 28.9765 4.40441C28.6734 4.25 28.2767 4.25 27.4833 4.25H22.1C21.3066 4.25 20.9099 4.25 20.6068 4.40441C20.3403 4.54023 20.1236 4.75695 19.9877 5.02351C19.8333 5.32656 19.8333 5.72326 19.8333 6.51667V11.9C19.8333 12.6934 19.8333 13.0901 19.9877 13.3932C20.1236 13.6597 20.3403 13.8764 20.6068 14.0123C20.9099 14.1667 21.3066 14.1667 22.1 14.1667ZM6.51667 14.1667H11.9C12.6934 14.1667 13.0901 14.1667 13.3932 14.0123C13.6597 13.8764 13.8764 13.6597 14.0123 13.3932C14.1667 13.0901 14.1667 12.6934 14.1667 11.9V6.51667C14.1667 5.72326 14.1667 5.32656 14.0123 5.02351C13.8764 4.75695 13.6597 4.54023 13.3932 4.40441C13.0901 4.25 12.6934 4.25 11.9 4.25H6.51667C5.72326 4.25 5.32656 4.25 5.02351 4.40441C4.75695 4.54023 4.54023 4.75695 4.40441 5.02351C4.25 5.32656 4.25 5.72326 4.25 6.51667V11.9C4.25 12.6934 4.25 13.0901 4.40441 13.3932C4.54023 13.6597 4.75695 13.8764 5.02351 14.0123C5.32656 14.1667 5.72326 14.1667 6.51667 14.1667ZM6.51667 29.75H11.9C12.6934 29.75 13.0901 29.75 13.3932 29.5956C13.6597 29.4598 13.8764 29.243 14.0123 28.9765C14.1667 28.6734 14.1667 28.2767 14.1667 27.4833V22.1C14.1667 21.3066 14.1667 20.9099 14.0123 20.6068C13.8764 20.3403 13.6597 20.1236 13.3932 19.9877C13.0901 19.8333 12.6934 19.8333 11.9 19.8333H6.51667C5.72326 19.8333 5.32656 19.8333 5.02351 19.9877C4.75695 20.1236 4.54023 20.3403 4.40441 20.6068C4.25 20.9099 4.25 21.3066 4.25 22.1V27.4833C4.25 28.2767 4.25 28.6734 4.40441 28.9765C4.54023 29.243 4.75695 29.4598 5.02351 29.5956C5.32656 29.75 5.72326 29.75 6.51667 29.75Z" stroke="#AF0000" stroke-width="2.16364" stroke-linecap="round" stroke-linejoin="round"/>
</svg>