<svg width="17" height="17" viewBox="0 0 17 17" fill="none" xmlns="http://www.w3.org/2000/svg">
<g id="file-download-02">
<path id="Icon" d="M13.8332 8.83398V5.03398C13.8332 3.91388 13.8332 3.35383 13.6152 2.926C13.4234 2.54968 13.1175 2.24372 12.7412 2.05197C12.3133 1.83398 11.7533 1.83398 10.6332 1.83398H6.3665C5.2464 1.83398 4.68635 1.83398 4.25852 2.05197C3.8822 2.24372 3.57624 2.54968 3.38449 2.926C3.1665 3.35383 3.1665 3.91388 3.1665 5.03398V11.9673C3.1665 13.0874 3.1665 13.6475 3.38449 14.0753C3.57624 14.4516 3.8822 14.7576 4.25852 14.9493C4.68635 15.1673 5.24637 15.1673 6.36641 15.1673H8.83317M9.83317 7.83398H5.83317M7.1665 10.5007H5.83317M11.1665 5.16732H5.83317M10.4998 13.1673L12.4998 15.1673M12.4998 15.1673L14.4998 13.1673M12.4998 15.1673V11.1673" stroke="white" stroke-width="1.33333" stroke-linecap="round" stroke-linejoin="round"/>
</g>
</svg>
