<svg width="34" height="34" viewBox="0 0 34 34" fill="none" xmlns="http://www.w3.org/2000/svg">
<path d="M18.4173 15.5833H25.2173C26.8041 15.5833 27.5975 15.5833 28.2036 15.8921C28.7368 16.1638 29.1702 16.5972 29.4418 17.1304C29.7507 17.7364 29.7507 18.5299 29.7507 20.1167V29.75M18.4173 29.75V8.78333C18.4173 7.19652 18.4173 6.40311 18.1085 5.79703C17.8369 5.2639 17.4034 4.83046 16.8703 4.55881C16.2642 4.25 15.4708 4.25 13.884 4.25H8.78398C7.19717 4.25 6.40376 4.25 5.79768 4.55881C5.26455 4.83046 4.83111 5.2639 4.55947 5.79703C4.25065 6.40311 4.25065 7.19652 4.25065 8.78333V29.75M31.1673 29.75H2.83398M9.20898 9.91667H13.459M9.20898 15.5833H13.459M9.20898 21.25H13.459" stroke="#AF0000" stroke-width="2.16364" stroke-linecap="round" stroke-linejoin="round"/>
</svg>