<svg width="34" height="34" viewBox="0 0 34 34" fill="none" xmlns="http://www.w3.org/2000/svg">
<path d="M12.7513 16.1979L15.5846 19.0313L21.9596 12.6563M28.3346 16.9063C28.3346 23.8599 20.7499 28.9173 17.9901 30.5273C17.6765 30.7103 17.5197 30.8018 17.2984 30.8493C17.1266 30.8861 16.876 30.8861 16.7043 30.8493C16.4829 30.8018 16.3261 30.7103 16.0125 30.5273C13.2527 28.9173 5.66797 23.8599 5.66797 16.9063V10.1312C5.66797 8.99856 5.66797 8.43224 5.85321 7.94543C6.01686 7.51539 6.28278 7.13166 6.62798 6.82744C7.01875 6.48306 7.54902 6.28421 8.60954 5.88651L16.2054 3.03806C16.4999 2.92761 16.6472 2.87239 16.7987 2.8505C16.9331 2.83108 17.0695 2.83108 17.2039 2.8505C17.3554 2.87239 17.5027 2.92761 17.7972 3.03806L25.3931 5.88651C26.4536 6.28421 26.9839 6.48306 27.3746 6.82744C27.7198 7.13166 27.9857 7.51539 28.1494 7.94543C28.3346 8.43224 28.3346 8.99856 28.3346 10.1312V16.9063Z" stroke="#AF0000" stroke-width="2.16364" stroke-linecap="round" stroke-linejoin="round"/>
</svg>