<svg width="278" height="32" viewBox="0 0 278 32" fill="none" xmlns="http://www.w3.org/2000/svg">
<path d="M58.8039 0.230923V6.77554H44.3799C43.0369 6.77554 41.8432 7.3705 41.0474 8.33732H33.0147C33.6115 4.56921 36.4218 1.52002 40.0526 0.577992C40.8485 0.35488 41.694 0.255714 42.5396 0.255714H58.8039V0.230923Z" fill="#FF0C2E"/>
<path d="M44.3799 23.7816H58.8039V30.1279H42.5147C41.6691 30.1279 40.8236 30.004 40.0278 29.8056C35.8995 28.7149 32.8655 24.9715 32.8655 20.5341V10.6924H40.0526C40.0278 10.8163 40.0278 10.9651 40.0278 11.089V19.4433C40.0526 21.848 41.9924 23.7816 44.3799 23.7816Z" fill="#FF0C2E"/>
<path d="M26.1011 0.478825V7.02344H11.677C10.4584 7.02344 9.33933 7.51924 8.56838 8.33732H0.336716C1.00818 4.69316 3.76865 1.74313 7.32493 0.801102C8.12074 0.57799 8.96629 0.478825 9.81184 0.478825H26.1011Z" fill="#FF0C2E"/>
<path d="M7.3498 12.0558H26.126V18.5013H7.3498V19.716C7.3498 22.0959 9.28958 24.0543 11.7019 24.0543H26.126V30.4006H9.83671C8.99116 30.4006 8.14561 30.2766 7.3498 30.0783C3.22153 28.9876 0.1875 25.2442 0.1875 20.8068V10.742H7.39953C7.37467 10.9403 7.3498 11.1634 7.3498 11.3865V12.0558Z" fill="#FF0C2E"/>
</svg>
